<svg xmlns="http://www.w3.org/2000/svg" viewBox="0 0 600 380" width="600" height="380">
  <rect width="600" height="380" fill="#1a3a3c" rx="8"/>
  <text x="300" y="50" text-anchor="middle" fill="#7fccd0" font-family="Arial,sans-serif" font-size="18" font-weight="bold">Sales Overview</text>
  <!-- KPI row -->
  <rect x="25" y="65" width="170" height="70" rx="6" fill="#2d4f52"/>
  <text x="110" y="90" text-anchor="middle" fill="#7fccd0" font-family="Arial,sans-serif" font-size="11">Revenue</text>
  <text x="110" y="115" text-anchor="middle" fill="#fff" font-family="Arial,sans-serif" font-size="18" font-weight="bold">$284K</text>
  <rect x="215" y="65" width="170" height="70" rx="6" fill="#2d4f52"/>
  <text x="300" y="90" text-anchor="middle" fill="#7fccd0" font-family="Arial,sans-serif" font-size="11">Orders</text>
  <text x="300" y="115" text-anchor="middle" fill="#fff" font-family="Arial,sans-serif" font-size="18" font-weight="bold">1,247</text>
  <rect x="405" y="65" width="170" height="70" rx="6" fill="#2d4f52"/>
  <text x="490" y="90" text-anchor="middle" fill="#7fccd0" font-family="Arial,sans-serif" font-size="11">Avg Ticket</text>
  <text x="490" y="115" text-anchor="middle" fill="#fff" font-family="Arial,sans-serif" font-size="18" font-weight="bold">$228</text>
  <!-- Bar chart -->
  <rect x="25" y="150" width="550" height="100" rx="6" fill="#2d4f52"/>
  <rect x="45" y="220" width="30" height="20" rx="3" fill="#457a7e"/>
  <rect x="85" y="200" width="30" height="40" rx="3" fill="#457a7e"/>
  <rect x="125" y="190" width="30" height="50" rx="3" fill="#457a7e"/>
  <rect x="165" y="170" width="30" height="70" rx="3" fill="#457a7e"/>
  <rect x="205" y="175" width="30" height="65" rx="3" fill="#457a7e"/>
  <rect x="245" y="160" width="30" height="80" rx="3" fill="#7fccd0"/>
  <rect x="285" y="180" width="30" height="60" rx="3" fill="#457a7e"/>
  <rect x="325" y="195" width="30" height="45" rx="3" fill="#457a7e"/>
  <rect x="365" y="210" width="30" height="30" rx="3" fill="#457a7e"/>
  <rect x="405" y="185" width="30" height="55" rx="3" fill="#457a7e"/>
  <rect x="445" y="200" width="30" height="40" rx="3" fill="#457a7e"/>
  <rect x="485" y="215" width="30" height="25" rx="3" fill="#457a7e"/>
  <rect x="525" y="195" width="30" height="45" rx="3" fill="#457a7e"/>
  <!-- Pie chart -->
  <rect x="25" y="265" width="270" height="100" rx="6" fill="#2d4f52"/>
  <circle cx="100" cy="315" r="30" fill="none" stroke="#457a7e" stroke-width="12" stroke-dasharray="60 128"/>
  <circle cx="100" cy="315" r="30" fill="none" stroke="#7fccd0" stroke-width="12" stroke-dasharray="45 143" transform="rotate(-120 100 315)"/>
  <circle cx="100" cy="315" r="30" fill="none" stroke="#2d4f52" stroke-width="12" stroke-dasharray="30 158" transform="rotate(60 100 315)"/>
  <rect x="140" y="285" width="10" height="10" rx="2" fill="#457a7e"/>
  <text x="155" y="295" fill="#b8d0d2" font-family="Arial,sans-serif" font-size="10">Product A</text>
  <rect x="140" y="300" width="10" height="10" rx="2" fill="#7fccd0"/>
  <text x="155" y="310" fill="#b8d0d2" font-family="Arial,sans-serif" font-size="10">Product B</text>
  <rect x="140" y="315" width="10" height="10" rx="2" fill="#2d4f52"/>
  <text x="155" y="325" fill="#b8d0d2" font-family="Arial,sans-serif" font-size="10">Product C</text>
  <rect x="140" y="330" width="10" height="10" rx="2" fill="#457a7e"/>
  <text x="155" y="340" fill="#b8d0d2" font-family="Arial,sans-serif" font-size="10">Product D</text>
  <!-- Line chart -->
  <rect x="305" y="265" width="270" height="100" rx="6" fill="#2d4f52"/>
  <polyline points="325,340 355,330 385,320 415,305 445,315 475,295 505,300 535,280" fill="none" stroke="#7fccd0" stroke-width="2"/>
  <circle cx="325" cy="340" r="3" fill="#7fccd0"/>
  <circle cx="355" cy="330" r="3" fill="#7fccd0"/>
  <circle cx="385" cy="320" r="3" fill="#7fccd0"/>
  <circle cx="415" cy="305" r="3" fill="#7fccd0"/>
  <circle cx="445" cy="315" r="3" fill="#7fccd0"/>
  <circle cx="475" cy="295" r="3" fill="#7fccd0"/>
  <circle cx="505" cy="300" r="3" fill="#7fccd0"/>
  <circle cx="535" cy="280" r="3" fill="#7fccd0"/>
  <text x="495" y="278" fill="#7fccd0" font-family="Arial,sans-serif" font-size="9">Trend ↑</text>
</svg>