<svg xmlns="http://www.w3.org/2000/svg" viewBox="0 0 120 120" width="120" height="120">
  <defs>
    <linearGradient id="gemini" x1="0" y1="0" x2="0" y2="1">
      <stop offset="0%" stop-color="#4285F4"/>
      <stop offset="100%" stop-color="#8E24AA"/>
    </linearGradient>
  </defs>
  <rect width="120" height="120" rx="16" fill="url(#gemini)"/>
  <g transform="translate(60,62) scale(1.55)">
    <path d="M-17,-14 C-17,-22 -10,-28 -2,-28 C3,-28 8,-25 11,-22 L6,-16 C4,-18 1,-20 -2,-20 C-7,-20 -11,-16 -11,-11 C-11,-6 -7,-2 -2,-2 C2,-2 5,-4 6,-7 L-2,-7 L-2,-12 L12,-12 C13,-10 13,-7 13,-4 C13,4 7,10 -2,10 C-11,10 -17,3 -17,-6 Z" fill="white"/>
    <path d="M-17,-14 C-17,-22 -10,-28 -2,-28" fill="none" stroke="white" stroke-width="2" stroke-linecap="round" transform="translate(0,-1)"/>
  </g>
</svg>